HIERARCHY
ROOT Hips
{
  OFFSET 0 0 0
  CHANNELS 6 Xposition Yposition Zposition Zrotation Yrotation Xrotation
  JOINT LeftThigh
  {
    OFFSET 8.409438 0 -5.917753
    CHANNELS 3 Zrotation Yrotation Xrotation
    JOINT LeftLeg
    {
      OFFSET 0 0 -42.358652
      CHANNELS 3 Zrotation Yrotation Xrotation
      JOINT LeftFoot
      {
        OFFSET 0 0 -39.357303
        CHANNELS 3 Zrotation Yrotation Xrotation
      }
    }
  }
  JOINT RightThigh
  {
    OFFSET -8.409438 0 -5.917753
    CHANNELS 3 Zrotation Yrotation Xrotation
    JOINT RightLeg
    {
      OFFSET 0 0 -42.358652
      CHANNELS 3 Zrotation Yrotation Xrotation
      JOINT RightFoot
      {
        OFFSET 0 0 -39.357303
        CHANNELS 3 Zrotation Yrotation Xrotation
      }
    }
  }
  JOINT SpineLow
  {
    OFFSET 0 0 4.719101
    CHANNELS 3 Zrotation Yrotation Xrotation
    JOINT SpineMid
    {
      OFFSET 0 0 12.899191
      CHANNELS 3 Zrotation Yrotation Xrotation
      JOINT Chest
      {
        OFFSET 0 0 12.899191
        CHANNELS 3 Zrotation Yrotation Xrotation
        JOINT LeftShoulder
        {
          OFFSET 7.550562 1.41573 9.438202
          CHANNELS 3 Zrotation Yrotation Xrotation
          JOINT LeftArm
          {
            OFFSET 9.155056 0 4.247191
            CHANNELS 3 Zrotation Yrotation Xrotation
            JOINT LeftForearm
            {
              OFFSET 0 0 25.771955
              CHANNELS 3 Zrotation Yrotation Xrotation
              JOINT LeftHand
              {
                OFFSET 0 0 25.197169
                CHANNELS 3 Zrotation Yrotation Xrotation
              }
            }
          }
        }
        JOINT RightShoulder
        {
          OFFSET -7.550562 1.41573 9.438202
          CHANNELS 3 Zrotation Yrotation Xrotation
          JOINT RightArm
          {
            OFFSET -9.155056 0 4.247191
            CHANNELS 3 Zrotation Yrotation Xrotation
            JOINT RightForearm
            {
              OFFSET 0 0 -25.771955
              CHANNELS 3 Zrotation Yrotation Xrotation
              JOINT RightHand
              {
                OFFSET 0 0 -25.197169
                CHANNELS 3 Zrotation Yrotation Xrotation
              }
            }
          }
        }
        JOINT Neck
        {
          OFFSET 0 0 15.101124
          CHANNELS 3 Zrotation Yrotation Xrotation
          JOINT Head
          {
            OFFSET 0 0 11.325843
            CHANNELS 3 Zrotation Yrotation Xrotation
            End Site
            {
              OFFSET 0 0 14.157303
            }
          }
        }
      }
    }
  }
}
MOTION
Frames: 13
Frame Time: 0.0
0.0  93.25843  0.0  10.021724  20.825614  -76.709077  -7.43102  -9.654395  -22.176329  -12.468169  3.847456  18.569582  3.729418  0.065361  2.454686  -29.822537  5.162205  -19.073787  -16.039471  13.493423  14.459583  -0.080837  0.45009  -0.782033  2.301855  2.076038  -0.834321  6.233743  5.747527  -2.085103  6.233743  5.747527  -2.085103  -0.971324  0.40076  10.366286  175.066262  17.027032  -160.668152  -5.356878  7.505614  101.120716  57.403502  -24.034027  15.325642  27.81964  -24.245684  26.978844  164.039716  81.558893  147.662612  -3.531338  16.039993  -37.234727  83.327674  -30.050632  15.128852  -22.343151  -2.63629  -1.845847  -16.76253  -1.912753  -1.483011  
0.0  93.25843  0.0  10.44536  20.750493  -76.408723  -7.147123  -9.339873  -22.780718  -11.630025  4.323561  20.310724  2.638304  -0.177682  1.482378  -29.50785  4.885371  -19.864863  -15.684457  14.589591  15.395321  0.975125  0.989684  -0.715174  2.460359  2.176544  -0.841623  6.665323  6.027265  -2.081277  6.665323  6.027265  -2.081276  -0.257121  -0.319571  10.249535  175.176707  16.611743  -161.591827  -4.533449  6.541853  101.67459  56.554145  -23.766442  17.088573  28.223242  -24.592787  26.553993  174.755197  82.686515  158.755963  -4.177477  12.151097  -36.567663  81.283239  -29.569789  16.175701  -22.953845  -2.908898  -1.849627  -17.220653  -2.115733  -1.49886  
0.0  93.25843  0.0  10.535346  20.529301  -76.155148  -7.01821  -9.385941  -23.436906  -11.502639  4.814761  21.045994  2.535499  -0.226067  1.451705  -29.190863  4.353212  -20.637546  -15.364474  15.644982  16.255299  0.975864  1.086648  -0.787454  2.631511  2.238056  -0.854657  7.131949  6.201498  -2.094669  7.131949  6.201498  -2.094669  0.123512  -0.680099  10.119412  175.834478  16.540116  -162.297682  -3.701958  5.439767  102.214069  55.541282  -23.462955  18.978799  28.363609  -24.765572  26.03224  -172.373142  83.64911  171.714968  -5.529478  8.21312  -36.209905  79.164273  -28.952288  17.377118  -23.505708  -3.149372  -1.878244  -17.634688  -2.293805  -1.532363  
0.0  93.25843  0.0  10.494282  20.144205  -75.921419  -6.775835  -9.591543  -24.021421  -10.900405  5.226104  21.964499  2.465719  -0.323021  1.517832  -28.849348  3.785413  -21.411395  -15.074741  16.659246  17.006409  1.177786  1.185837  -0.8004  2.768945  2.309398  -0.867846  7.506068  6.401651  -2.109796  7.506068  6.401652  -2.109796  0.715445  -1.177097  9.829599  176.567708  16.496738  -162.912251  -2.960903  4.367007  102.725518  54.551322  -23.086456  20.789325  28.770692  -25.073336  25.278156  -158.004413  84.301122  -173.87261  -7.50707  4.378316  -36.10667  77.066292  -28.201748  18.624231  -23.843445  -3.478717  -1.923274  -17.888213  -2.538583  -1.580857  
0.0  93.25843  0.0  10.36796  19.534181  -75.908072  -6.436863  -9.758617  -24.341851  -10.476243  5.504337  22.704746  2.197281  -0.392058  1.4428  -28.315876  3.314481  -22.02271  -14.845584  17.595097  17.730192  1.421731  1.240135  -0.825623  2.943725  2.343362  -0.859674  7.985416  6.498382  -2.066238  7.985416  6.498382  -2.066238  1.059676  -1.49595  9.499021  177.404841  16.452042  -163.54231  -2.351262  3.524297  103.22988  53.694559  -22.580688  22.312698  28.868095  -25.296098  24.68901  -143.379422  84.629992  -159.357063  -9.954613  0.713504  -36.218525  74.961965  -27.221544  19.904686  -24.155886  -3.671636  -1.994754  -18.122889  -2.679851  -1.644035  
0.0  93.25843  0.0  10.154033  18.678529  -75.950279  -5.975345  -9.799107  -24.606915  -10.165219  5.618344  23.50622  1.91308  -0.400859  1.212759  -27.433327  2.828517  -22.61319  -14.532422  18.451865  18.498847  1.670945  1.335477  -0.860227  3.118357  2.371177  -0.867244  8.462979  6.580098  -2.06603  8.462978  6.580099  -2.06603  1.47029  -1.846699  9.156312  178.276423  16.444324  -164.164351  -1.82787  3.11616  103.752646  53.061251  -22.016428  23.403092  28.877926  -25.660131  24.237295  -130.252457  84.64846  -146.523527  -12.726195  -2.773715  -36.589067  72.847705  -25.850458  21.166804  -24.339432  -3.84033  -2.033687  -18.260714  -2.804536  -1.681149  
0.0  93.25843  0.0  9.961314  17.387779  -76.055644  -5.005992  -9.550392  -24.592063  -10.327067  5.709704  24.059318  1.750114  -0.333804  0.913814  -26.081024  2.438585  -23.220418  -14.122823  19.190461  19.296818  1.657201  1.453194  -0.925043  3.319826  2.392623  -0.88128  9.013613  6.646059  -2.081178  9.013613  6.646059  -2.081178  1.87819  -2.027731  8.89086  179.226007  16.404306  -164.622356  -1.296669  2.982308  104.152595  52.618951  -21.868156  24.078055  28.803931  -25.961325  24.019643  -117.822134  84.536878  -134.556204  -15.628486  -6.05482  -37.293995  70.818214  -23.940979  22.337678  -24.397453  -3.933743  -2.083699  -18.304521  -2.872563  -1.722823  
0.0  93.25843  0.0  9.850252  15.627401  -76.247276  -3.769266  -9.027317  -24.457313  -10.688911  5.87428  24.500794  1.843571  -0.301215  0.706729  -24.481569  2.213124  -23.802051  -13.59105  19.777583  20.035107  1.712987  1.617275  -1.001496  3.509589  2.411393  -0.891418  9.53263  6.703931  -2.086845  9.532629  6.703931  -2.086845  2.558323  -1.999352  8.690384  -179.863282  16.19894  -164.844118  -0.803916  2.883462  104.32749  52.189613  -22.413691  24.542226  28.769703  -26.11419  24.017533  -105.993391  84.354606  -123.491071  -18.496398  -9.22229  -38.427427  69.094474  -21.565385  23.350669  -24.185142  -3.964231  -2.172535  -18.145941  -2.892585  -1.789321  
0.0  93.25843  0.0  9.804323  13.503248  -76.501294  -2.365021  -8.286656  -24.243069  -11.089554  5.920592  24.821573  2.2004  -0.245704  0.77031  -23.003944  2.052542  -24.400113  -12.950538  20.268379  20.632607  1.761988  1.711196  -1.101724  3.675542  2.43913  -0.8896  9.987533  6.783836  -2.060626  9.987533  6.783836  -2.060626  3.370158  -1.839618  8.53377  -178.92206  15.741457  -164.746514  -0.519263  2.774538  104.340902  51.578508  -23.182131  25.080068  28.712173  -26.098808  24.142672  -94.200703  84.135342  -112.837945  -21.244496  -12.352678  -40.050023  67.749922  -18.987456  24.135335  -23.736642  -4.002264  -2.305613  -17.810599  -2.91739  -1.887693  
0.0  93.25843  0.0  9.72254  11.049275  -76.791389  -0.796424  -7.497302  -23.807835  -11.351632  5.765958  24.967019  2.862872  -0.066715  1.135281  -21.630252  1.853025  -24.997067  -12.232877  20.66586  21.021062  1.961425  1.824578  -1.138906  3.84311  2.47168  -0.89928  10.445695  6.878569  -2.064527  10.445695  6.878569  -2.064527  4.04166  -1.573001  8.576877  -177.858591  15.112224  -164.22512  -0.456606  2.718511  104.24148  50.801054  -23.779984  25.85924  28.299368  -25.971218  24.475076  -82.157637  83.918465  -102.486248  -23.740314  -15.486746  -42.084443  66.66204  -16.339972  24.669018  -23.170526  -4.037664  -2.398113  -17.386823  -2.942373  -1.954608  
0.0  93.25843  0.0  9.609243  8.151488  -77.18833  0.896188  -6.871339  -23.087165  -11.006553  5.397886  25.139526  3.1248  -0.036657  1.235397  -20.185342  1.700414  -25.555548  -11.320956  20.884657  21.324909  2.226214  1.889293  -1.138832  4.030078  2.512641  -0.922042  10.955664  6.998901  -2.100261  10.955663  6.9989  -2.100261  4.52879  -1.30487  8.765547  -176.641931  14.26351  -163.383093  -0.498946  2.499173  104.0956  49.871192  -24.146566  26.835922  27.607872  -25.748524  24.988697  -69.562444  83.773081  -92.131993  -25.927972  -18.68608  -44.417653  65.763283  -13.663823  24.814302  -22.472146  -4.074289  -2.394365  -16.86324  -2.972476  -1.948297  
0.0  93.25843  0.0  9.461146  4.844991  -77.641014  2.698973  -6.024993  -21.911151  -10.333679  4.451331  25.124539  2.694304  0.082171  0.953999  -18.548609  1.609938  -26.103676  -10.232524  20.864914  21.674523  2.458579  1.953719  -1.172025  4.189814  2.541839  -0.976154  11.387695  7.091992  -2.225996  11.387694  7.091992  -2.225996  5.038192  -0.842382  9.169671  -175.25355  13.333755  -162.175294  -0.634857  1.974954  103.922817  48.86555  -24.378709  27.989217  26.955417  -25.537802  25.637594  -56.839259  83.948905  -82.095356  -27.899371  -21.957949  -46.896036  64.850181  -11.086786  24.460203  -21.464631  -4.061674  -2.283772  -16.107144  -2.970427  -1.857798  
0.0  93.25843  0.0  9.353107  0.991561  -78.069039  4.155624  -5.745451  -20.994629  -8.897327  3.903817  25.21393  2.67153  0.220739  0.939263  -16.525616  1.655491  -26.739024  -9.147428  20.628176  21.992092  2.53592  2.011453  -1.192338  4.327017  2.574957  -1.049491  11.755689  7.199052  -2.405644  11.755689  7.199052  -2.405644  5.584957  -0.187773  9.64037  -173.630105  12.384075  -160.545961  -0.837622  1.242892  103.757509  47.937878  -24.586609  29.231614  26.498799  -25.3145  26.242827  -41.467236  84.549555  -69.777559  -29.692917  -25.308354  -49.475293  64.126755  -8.578997  23.682319  -20.072109  -4.036998  -2.142452  -15.062202  -2.961209  -1.741267  
